<svg width="24" height="24" viewBox="0 0 24 24" fill="none" xmlns="http://www.w3.org/2000/svg">
  <path d="M19.14 12.94C19.18 12.64 19.2 12.33 19.2 12C19.2 11.67 19.18 11.36 19.14 11.06L21.16 9.48C21.34 9.34 21.39 9.07 21.28 8.87L19.36 5.55C19.25 5.35 19.01 5.27 18.8 5.33L16.36 6.04C15.88 5.59 15.35 5.2 14.76 4.9L14.4 2.3C14.37 2.08 14.19 1.92 14 1.92H10C9.81 1.92 9.63 2.08 9.6 2.3L9.24 4.9C8.65 5.2 8.12 5.6 7.64 6.04L5.2 5.33C4.99 5.27 4.75 5.35 4.64 5.55L2.72 8.87C2.61 9.07 2.66 9.34 2.84 9.48L4.86 11.06C4.82 11.36 4.8 11.67 4.8 12C4.8 12.33 4.82 12.64 4.86 12.94L2.84 14.52C2.66 14.66 2.61 14.93 2.72 15.13L4.64 18.45C4.75 18.65 4.99 18.73 5.2 18.67L7.64 17.96C8.12 18.41 8.65 18.8 9.24 19.1L9.6 21.7C9.63 21.92 9.81 22.08 10 22.08H14C14.19 22.08 14.37 21.92 14.4 21.7L14.76 19.1C15.35 18.8 15.88 18.41 16.36 17.96L18.8 18.67C19.01 18.73 19.25 18.65 19.36 18.45L21.28 15.13C21.39 14.93 21.34 14.66 21.16 14.52L19.14 12.94ZM12 15.6C10.66 15.6 9.6 14.54 9.6 13.2C9.6 11.86 10.66 10.8 12 10.8C13.34 10.8 14.4 11.86 14.4 13.2C14.4 14.54 13.34 15.6 12 15.6Z" fill="currentColor"/>
</svg>
